<svg width="310" height="288" viewBox="0 0 310 288" fill="none" xmlns="http://www.w3.org/2000/svg">
<path d="M154.45 104.985C135.419 32.6305 43.5538 4.84729 0 0C13.1371 17.734 20.9484 35.1133 26.6293 43.9803C32.3103 52.8473 44.0272 110.305 56.0991 136.197C65.7567 156.91 83.3202 169.655 90.8948 173.438C60.2178 187.342 22.2503 184.434 7.10116 181.241C19.5992 217.561 95.3922 267.547 131.726 288C182.855 263.527 257.076 230.897 148.059 230.897C61.425 230.897 90.8948 210.81 115.039 203.586C188.536 181.596 196.301 137.616 200.963 120.236C204.692 106.333 220.27 101.911 227.592 101.438L211.614 89.3793C205.081 78.0758 193.507 76.3936 188.536 76.9655C170.073 76.9655 158.119 95.6453 154.45 104.985Z" fill="#8CBF3F"/>
<path d="M309.965 195.429C308.829 209.9 266.175 240.946 244.99 254.66C252.091 248.418 252.521 240.292 252.446 236.571C252.091 218.837 198.122 218.483 168.652 218.483C136.924 218.483 122.998 219.009 122.14 214.936C120.72 208.197 156.936 198.975 168.652 190.818C173.285 187.592 192.796 176.985 216.585 141.517C241.084 108.532 248.54 102.148 251.026 101.438C253.049 100.979 257.067 100.138 259.902 102.148C278.967 115.662 311.202 179.682 309.965 195.429Z" fill="#18AD9F"/>
</svg>
